<svg width="312" height="43" viewBox="0 0 312 43" fill="none" xmlns="http://www.w3.org/2000/svg">
<path d="M303.415 13.5708V0.439453H306.735V13.5708H303.415ZM298.51 8.66511V5.34517H311.641V8.66511H298.51Z" fill="#000000"/>
<path d="M280.917 5.56751V2.27539H293.724V5.56751H280.917ZM280.917 11.7252V8.43304H293.724V11.7252H280.917Z" fill="#000000"/>
<path d="M276.662 5.23438V8.36884H268V5.23438H276.662Z" fill="#000000"/>
<path d="M310.178 22.26L308.936 22.5896C308.738 21.9744 308.457 21.4434 308.09 20.9967C307.724 20.5499 307.263 20.2057 306.706 19.964C306.157 19.715 305.498 19.5905 304.729 19.5905C303.491 19.5905 302.477 19.8981 301.686 20.5133C300.902 21.1285 300.51 21.9305 300.51 22.9192C300.51 23.7248 300.777 24.3913 301.312 24.9186C301.847 25.4386 302.663 25.8341 303.762 26.1051L306.355 26.7532C307.688 27.0828 308.691 27.6174 309.365 28.3571C310.038 29.0895 310.375 30.0013 310.375 31.0926C310.375 32.0227 310.123 32.8466 309.617 33.5644C309.112 34.2821 308.413 34.8424 307.519 35.2452C306.633 35.648 305.6 35.8494 304.421 35.8494C302.846 35.8494 301.554 35.4832 300.543 34.7508C299.532 34.0111 298.884 32.9528 298.599 31.576L299.884 31.2464C300.126 32.345 300.627 33.1835 301.389 33.7621C302.158 34.3334 303.165 34.619 304.41 34.619C305.787 34.619 306.897 34.2931 307.739 33.6413C308.588 32.9895 309.013 32.1545 309.013 31.1365C309.013 30.3602 308.764 29.7047 308.266 29.1701C307.768 28.6354 307.014 28.2436 306.003 27.9946L303.312 27.3355C301.935 26.9986 300.902 26.4603 300.214 25.7206C299.525 24.9735 299.181 24.0544 299.181 22.9631C299.181 22.055 299.419 21.2567 299.895 20.5682C300.371 19.8798 301.026 19.3415 301.861 18.9533C302.696 18.5652 303.652 18.3711 304.729 18.3711C306.157 18.3711 307.321 18.708 308.222 19.3818C309.123 20.0556 309.775 21.015 310.178 22.26Z" fill="#000000"/>
<path d="M288.151 35.8494C286.628 35.8494 285.302 35.4722 284.174 34.7179C283.046 33.9635 282.175 32.9309 281.56 31.6199C280.944 30.3089 280.637 28.8149 280.637 27.1377C280.637 25.4532 280.944 23.9519 281.56 22.6336C282.182 21.3153 283.035 20.2753 284.119 19.5136C285.203 18.7519 286.441 18.3711 287.832 18.3711C288.777 18.3711 289.671 18.5615 290.513 18.9424C291.362 19.3159 292.11 19.8578 292.754 20.5682C293.406 21.2787 293.915 22.1355 294.281 23.1389C294.655 24.1423 294.841 25.2701 294.841 26.5225V27.3574H281.483V26.138H293.501C293.501 24.9149 293.252 23.8127 292.754 22.8313C292.256 21.8499 291.579 21.0699 290.722 20.4913C289.865 19.9128 288.902 19.6235 287.832 19.6235C286.712 19.6235 285.712 19.9384 284.833 20.5682C283.962 21.1908 283.27 22.033 282.757 23.095C282.252 24.1569 281.988 25.3434 281.966 26.6543V27.2036C281.966 28.6098 282.211 29.8732 282.702 30.9937C283.2 32.1069 283.91 32.9895 284.833 33.6413C285.756 34.2858 286.862 34.608 288.151 34.608C289.074 34.608 289.861 34.4542 290.513 34.1466C291.172 33.8317 291.71 33.4509 292.128 33.0041C292.545 32.5574 292.86 32.1253 293.073 31.7078L294.292 32.2022C294.036 32.7661 293.637 33.33 293.095 33.894C292.56 34.4506 291.879 34.9156 291.051 35.2891C290.231 35.6627 289.264 35.8494 288.151 35.8494Z" fill="#000000"/>
<path d="M274.627 35.4979V18.6238H275.957V35.4979H274.627ZM275.298 15.6356C275.005 15.6356 274.748 15.5331 274.529 15.328C274.316 15.123 274.21 14.874 274.21 14.581C274.21 14.288 274.316 14.039 274.529 13.834C274.741 13.6289 274.997 13.5264 275.298 13.5264C275.591 13.5264 275.843 13.6289 276.056 13.834C276.275 14.039 276.385 14.288 276.385 14.581C276.385 14.874 276.279 15.123 276.067 15.328C275.854 15.5331 275.598 15.6356 275.298 15.6356Z" fill="#000000"/>
<path d="M248.056 13H249.55L258.217 33.5214H258.371L267.039 13H268.533V35.4988H267.215V16.2628H267.083L258.943 35.4988H257.646L249.506 16.2628H249.374V35.4988H248.056V13Z" fill="#000000"/>
<path d="M232.197 1V38H231V1H232.197Z" fill="#000000"/>
<mask id="mask0_1913_172" style="mask-type:luminance" maskUnits="userSpaceOnUse" x="0" y="1" width="46" height="42">
<path d="M45.8788 1H0V42.5727H45.8788V1Z" fill="white"/>
</mask>
<g mask="url(#mask0_1913_172)">
<path d="M28.2787 24.1587L18.3675 37.198L14.2979 42.5525V14.0146H23.3718C28.5155 14.0146 31.4165 20.0184 28.2787 24.1587Z" fill="url(#paint0_linear_1913_172)"/>
</g>
<mask id="mask1_1913_172" style="mask-type:luminance" maskUnits="userSpaceOnUse" x="0" y="1" width="46" height="24">
<path d="M0 1V14.0146H23.3721C28.5158 14.0146 31.4168 20.0184 28.279 24.1587L35.9892 14.0146L36 14.0003L45.8788 1H0Z" fill="white"/>
</mask>
<g mask="url(#mask1_1913_172)">
<path d="M0.0579236 -0.657768L-0.80957 24.1299L45.8206 25.8171L46.6881 1.02943L0.0579236 -0.657768Z" fill="#E1FF00"/>
</g>
<path d="M65.6483 28.1224L54.0869 6.03853L42.5254 28.1224L40 32.9232H45.5243L48.0497 28.1224L54.0869 16.6003L60.1241 28.1224L62.6495 32.9232H68.1737L65.6483 28.1224ZM93.2301 6.03853V23.1679L75.4736 9.84078L70.5412 6.15374V32.9616H75.4736V15.9475L93.2301 29.2746L98.1624 32.9616V6.07693L93.2301 6.03853ZM129.69 19.4808C129.69 12.0683 123.535 6.03853 115.919 6.03853C108.303 6.03853 102.108 12.0683 102.108 19.4808C102.108 26.8934 108.304 32.9232 115.919 32.9232H129.69V28.1224H126.455C128.547 25.7035 129.693 22.6426 129.69 19.4808ZM116.116 28.1224H115.88C110.987 28.1224 107.001 24.2433 107.001 19.4809C107.001 14.7185 110.987 10.8394 115.88 10.8394C120.772 10.8394 124.758 14.7185 124.758 19.4809C124.758 24.1664 120.891 28.0072 116.116 28.1224ZM146.539 6.03853C138.924 6.03853 132.729 12.0683 132.729 19.4808C132.729 26.8934 138.923 32.9231 146.539 32.9231C154.155 32.9231 160.35 26.8934 160.35 19.4808C160.35 12.0683 154.155 6.03853 146.539 6.03853ZM146.539 28.1224C141.646 28.1224 137.661 24.2433 137.661 19.4809C137.661 14.7185 141.646 10.8394 146.539 10.8394C151.432 10.8394 155.417 14.7185 155.417 19.4809C155.417 24.2433 151.432 28.1224 146.539 28.1224ZM181.697 20.5179C182.436 20.4441 183.156 20.2493 183.828 19.9417C185.124 19.3585 186.221 18.4266 186.99 17.2561C187.759 16.0856 188.168 14.7252 188.168 13.3358C188.169 12.3873 187.978 11.4479 187.606 10.5714C187.234 9.69483 186.687 8.89841 185.998 8.22771C185.309 7.55701 184.491 7.0252 183.59 6.66272C182.69 6.30025 181.725 6.11424 180.75 6.11533H163.309V33H168.242V20.6331H173.174C174.949 20.6331 176.488 21.5548 177.356 22.9373L177.475 23.1677L180.119 28.199L182.644 32.9998H188.168L185.643 28.199L181.697 20.5179ZM168.242 15.8707V10.9162H180.75C181.078 10.9116 181.404 10.9703 181.709 11.0889C182.014 11.2076 182.291 11.3838 182.526 11.6075C183.003 12.0785 183.272 12.7126 183.275 13.3742C183.274 13.847 183.132 14.3092 182.866 14.7047C182.599 15.1002 182.221 15.4118 181.776 15.6018C181.457 15.7547 181.106 15.8335 180.75 15.8322L168.242 15.8707ZM211.804 6.00012L204.228 15.5634L196.652 6.00012H190.418L201.111 19.4809L201.782 20.2874V32.8848H206.715V20.2105L207.306 19.4808L218 6L211.804 6.00012ZM190.378 33L190.457 32.9232H190.378V33ZM217.999 33V32.9232H217.96L217.999 33Z" fill="#000000"/>
<path d="M31.5 43C33.433 43 35 41.433 35 39.5C35 37.567 33.433 36 31.5 36C29.567 36 28 37.567 28 39.5C28 41.433 29.567 43 31.5 43Z" fill="#E1FF00"/>
<defs>
<linearGradient id="paint0_linear_1913_172" x1="18.6832" y1="32.2789" x2="32.2375" y2="19.5208" gradientUnits="userSpaceOnUse">
<stop stop-color="#E1FF00"/>
<stop offset="1"/>
</linearGradient>
</defs>
</svg>